<mxfile host="Electron" agent="Mozilla/5.0 (Macintosh; Intel Mac OS X 10_15_7) AppleWebKit/537.36 (KHTML, like Gecko) draw.io/28.0.4 Chrome/138.0.7204.97 Electron/37.2.1 Safari/537.36" version="28.0.4">
  <diagram name="Page-1" id="f9V8QmOKh9iysLme9xBw">
    <mxGraphModel dx="865" dy="1564" grid="0" gridSize="10" guides="1" tooltips="1" connect="1" arrows="1" fold="1" page="0" pageScale="1" pageWidth="1100" pageHeight="850" math="0" shadow="0">
      <root>
        <mxCell id="0" />
        <mxCell id="1" parent="0" />
        <mxCell id="kcC3YJM4DWDNPQJ4jlRd-122" value="" style="rounded=0;whiteSpace=wrap;html=1;fillColor=#f5f5f5;fontColor=#333333;strokeColor=default;dashed=1;dashPattern=8 8;" vertex="1" parent="1">
          <mxGeometry x="1194.5" y="1588.5" width="280" height="71" as="geometry" />
        </mxCell>
        <mxCell id="kcC3YJM4DWDNPQJ4jlRd-6" value="AWS Cloud (Commercial)" style="sketch=0;outlineConnect=0;gradientColor=none;html=1;whiteSpace=wrap;fontSize=12;fontStyle=0;shape=mxgraph.aws4.group;grIcon=mxgraph.aws4.group_aws_cloud;strokeColor=#7C8787;fillColor=none;verticalAlign=top;align=left;spacingLeft=30;fontColor=#AAB7B8;dashed=0;" vertex="1" parent="1">
          <mxGeometry x="1140" y="620" width="798" height="1666" as="geometry" />
        </mxCell>
        <mxCell id="kcC3YJM4DWDNPQJ4jlRd-111" value="" style="rounded=0;whiteSpace=wrap;html=1;fillColor=#f5f5f5;fontColor=#333333;strokeColor=default;dashed=1;" vertex="1" parent="1">
          <mxGeometry x="1177.5" y="1448.5" width="317" height="386" as="geometry" />
        </mxCell>
        <mxCell id="kcC3YJM4DWDNPQJ4jlRd-1" value="AWS Cloud (GovCloud)" style="sketch=0;outlineConnect=0;gradientColor=none;html=1;whiteSpace=wrap;fontSize=12;fontStyle=0;shape=mxgraph.aws4.group;grIcon=mxgraph.aws4.group_aws_cloud;strokeColor=#7C8787;fillColor=none;verticalAlign=top;align=left;spacingLeft=30;fontColor=#AAB7B8;dashed=0;" vertex="1" parent="1">
          <mxGeometry x="1996" y="620" width="724" height="1667" as="geometry" />
        </mxCell>
        <mxCell id="kcC3YJM4DWDNPQJ4jlRd-2" value="" style="rounded=0;whiteSpace=wrap;html=1;fillColor=#f5f5f5;fontColor=#333333;strokeColor=default;dashed=1;" vertex="1" parent="1">
          <mxGeometry x="2029" y="672" width="465" height="338" as="geometry" />
        </mxCell>
        <mxCell id="kcC3YJM4DWDNPQJ4jlRd-3" value="" style="rounded=0;whiteSpace=wrap;html=1;fillColor=#f5f5f5;fontColor=#333333;strokeColor=default;dashed=1;" vertex="1" parent="1">
          <mxGeometry x="2029" y="2042" width="313" height="225" as="geometry" />
        </mxCell>
        <mxCell id="kcC3YJM4DWDNPQJ4jlRd-4" value="" style="rounded=0;whiteSpace=wrap;html=1;fillColor=#f5f5f5;fontColor=#333333;strokeColor=default;dashed=1;" vertex="1" parent="1">
          <mxGeometry x="2029" y="1460" width="313" height="564" as="geometry" />
        </mxCell>
        <mxCell id="kcC3YJM4DWDNPQJ4jlRd-5" value="" style="rounded=0;whiteSpace=wrap;html=1;fillColor=#f5f5f5;fontColor=#333333;strokeColor=default;dashed=1;" vertex="1" parent="1">
          <mxGeometry x="2026" y="1033" width="465" height="409" as="geometry" />
        </mxCell>
        <mxCell id="kcC3YJM4DWDNPQJ4jlRd-7" value="" style="rounded=0;whiteSpace=wrap;html=1;fillColor=#f5f5f5;fontColor=#333333;strokeColor=default;dashed=1;" vertex="1" parent="1">
          <mxGeometry x="1538" y="1029" width="377" height="1001" as="geometry" />
        </mxCell>
        <mxCell id="kcC3YJM4DWDNPQJ4jlRd-11" value="" style="rounded=0;whiteSpace=wrap;html=1;fillColor=#f5f5f5;fontColor=#333333;strokeColor=default;dashed=1;" vertex="1" parent="1">
          <mxGeometry x="1180" y="676.5" width="730" height="329" as="geometry" />
        </mxCell>
        <mxCell id="kcC3YJM4DWDNPQJ4jlRd-13" value="Ryan Necessary - IM (XXXXX1026" style="points=[[0,0],[0.25,0],[0.5,0],[0.75,0],[1,0],[1,0.25],[1,0.5],[1,0.75],[1,1],[0.75,1],[0.5,1],[0.25,1],[0,1],[0,0.75],[0,0.5],[0,0.25]];outlineConnect=0;gradientColor=none;html=1;whiteSpace=wrap;fontSize=12;fontStyle=0;container=1;pointerEvents=0;collapsible=0;recursiveResize=0;shape=mxgraph.aws4.group;grIcon=mxgraph.aws4.group_account;strokeColor=#CD2264;fillColor=default;verticalAlign=top;align=left;spacingLeft=30;fontColor=#CD2264;dashed=0;" vertex="1" parent="1">
          <mxGeometry x="1195" y="727.5" width="675" height="142.5" as="geometry" />
        </mxCell>
        <mxCell id="kcC3YJM4DWDNPQJ4jlRd-14" value="" style="group" vertex="1" connectable="0" parent="kcC3YJM4DWDNPQJ4jlRd-13">
          <mxGeometry x="-5" y="42.5" width="130" height="60" as="geometry" />
        </mxCell>
        <mxCell id="kcC3YJM4DWDNPQJ4jlRd-15" value="" style="sketch=0;points=[[0,0,0],[0.25,0,0],[0.5,0,0],[0.75,0,0],[1,0,0],[0,1,0],[0.25,1,0],[0.5,1,0],[0.75,1,0],[1,1,0],[0,0.25,0],[0,0.5,0],[0,0.75,0],[1,0.25,0],[1,0.5,0],[1,0.75,0]];outlineConnect=0;fontColor=#232F3E;fillColor=#DD344C;strokeColor=#ffffff;dashed=0;verticalLabelPosition=bottom;verticalAlign=top;align=center;html=1;fontSize=12;fontStyle=0;aspect=fixed;shape=mxgraph.aws4.resourceIcon;resIcon=mxgraph.aws4.organizations;" vertex="1" parent="kcC3YJM4DWDNPQJ4jlRd-14">
          <mxGeometry x="54" width="33" height="33" as="geometry" />
        </mxCell>
        <mxCell id="kcC3YJM4DWDNPQJ4jlRd-16" value="AWS Organizations" style="text;html=1;align=center;verticalAlign=middle;resizable=0;points=[];autosize=1;strokeColor=none;fillColor=none;" vertex="1" parent="kcC3YJM4DWDNPQJ4jlRd-14">
          <mxGeometry y="30" width="130" height="30" as="geometry" />
        </mxCell>
        <mxCell id="kcC3YJM4DWDNPQJ4jlRd-32" value="" style="sketch=0;outlineConnect=0;fontColor=#232F3E;gradientColor=none;fillColor=#E7157B;strokeColor=none;dashed=0;verticalLabelPosition=bottom;verticalAlign=top;align=center;html=1;fontSize=12;fontStyle=0;aspect=fixed;pointerEvents=1;shape=mxgraph.aws4.organizations_organizational_unit2;" vertex="1" parent="1">
          <mxGeometry x="1184" y="677.5" width="36" height="36" as="geometry" />
        </mxCell>
        <mxCell id="kcC3YJM4DWDNPQJ4jlRd-33" value="Root OU" style="text;html=1;align=center;verticalAlign=middle;resizable=0;points=[];autosize=1;strokeColor=none;fillColor=none;" vertex="1" parent="1">
          <mxGeometry x="1232" y="687.5" width="65" height="26" as="geometry" />
        </mxCell>
        <mxCell id="kcC3YJM4DWDNPQJ4jlRd-42" value="SharedServicesGC*" style="points=[[0,0],[0.25,0],[0.5,0],[0.75,0],[1,0],[1,0.25],[1,0.5],[1,0.75],[1,1],[0.75,1],[0.5,1],[0.25,1],[0,1],[0,0.75],[0,0.5],[0,0.25]];outlineConnect=0;html=1;whiteSpace=wrap;fontSize=12;fontStyle=0;container=1;pointerEvents=0;collapsible=0;recursiveResize=0;shape=mxgraph.aws4.group;grIcon=mxgraph.aws4.group_account;strokeColor=#d79b00;fillColor=#ffe6cc;verticalAlign=top;align=left;spacingLeft=30;dashed=0;opacity=30;" vertex="1" parent="1">
          <mxGeometry x="1585" y="1507" width="287" height="144.5" as="geometry" />
        </mxCell>
        <mxCell id="kcC3YJM4DWDNPQJ4jlRd-43" value="LogArchiveGC" style="points=[[0,0],[0.25,0],[0.5,0],[0.75,0],[1,0],[1,0.25],[1,0.5],[1,0.75],[1,1],[0.75,1],[0.5,1],[0.25,1],[0,1],[0,0.75],[0,0.5],[0,0.25]];outlineConnect=0;html=1;whiteSpace=wrap;fontSize=12;fontStyle=0;container=1;pointerEvents=0;collapsible=0;recursiveResize=0;shape=mxgraph.aws4.group;grIcon=mxgraph.aws4.group_account;strokeColor=#d79b00;fillColor=#ffe6cc;verticalAlign=top;align=left;spacingLeft=30;dashed=0;opacity=30;" vertex="1" parent="1">
          <mxGeometry x="1585" y="1287.5" width="287" height="144.5" as="geometry" />
        </mxCell>
        <mxCell id="kcC3YJM4DWDNPQJ4jlRd-44" value="AuditGC" style="points=[[0,0],[0.25,0],[0.5,0],[0.75,0],[1,0],[1,0.25],[1,0.5],[1,0.75],[1,1],[0.75,1],[0.5,1],[0.25,1],[0,1],[0,0.75],[0,0.5],[0,0.25]];outlineConnect=0;html=1;whiteSpace=wrap;fontSize=12;fontStyle=0;container=1;pointerEvents=0;collapsible=0;recursiveResize=0;shape=mxgraph.aws4.group;grIcon=mxgraph.aws4.group_account;strokeColor=#d79b00;fillColor=#ffe6cc;verticalAlign=top;align=left;spacingLeft=30;dashed=0;opacity=30;" vertex="1" parent="1">
          <mxGeometry x="1585" y="1089.25" width="287" height="144.5" as="geometry" />
        </mxCell>
        <mxCell id="kcC3YJM4DWDNPQJ4jlRd-45" value="NetworkGC" style="points=[[0,0],[0.25,0],[0.5,0],[0.75,0],[1,0],[1,0.25],[1,0.5],[1,0.75],[1,1],[0.75,1],[0.5,1],[0.25,1],[0,1],[0,0.75],[0,0.5],[0,0.25]];outlineConnect=0;html=1;whiteSpace=wrap;fontSize=12;fontStyle=0;container=1;pointerEvents=0;collapsible=0;recursiveResize=0;shape=mxgraph.aws4.group;grIcon=mxgraph.aws4.group_account;strokeColor=#d79b00;fillColor=#ffe6cc;verticalAlign=top;align=left;spacingLeft=30;dashed=0;opacity=30;" vertex="1" parent="1">
          <mxGeometry x="1585" y="1692.75" width="287" height="144.5" as="geometry" />
        </mxCell>
        <mxCell id="kcC3YJM4DWDNPQJ4jlRd-47" value="" style="sketch=0;outlineConnect=0;fontColor=#232F3E;gradientColor=none;fillColor=#E7157B;strokeColor=none;dashed=0;verticalLabelPosition=bottom;verticalAlign=top;align=center;html=1;fontSize=12;fontStyle=0;aspect=fixed;pointerEvents=1;shape=mxgraph.aws4.organizations_organizational_unit2;" vertex="1" parent="1">
          <mxGeometry x="1542" y="1029" width="36" height="36" as="geometry" />
        </mxCell>
        <mxCell id="kcC3YJM4DWDNPQJ4jlRd-48" value="GovCloud OU" style="text;html=1;align=center;verticalAlign=middle;resizable=0;points=[];autosize=1;strokeColor=none;fillColor=none;" vertex="1" parent="1">
          <mxGeometry x="1579" y="1039" width="93" height="26" as="geometry" />
        </mxCell>
        <mxCell id="kcC3YJM4DWDNPQJ4jlRd-49" value="IM-root-mgt - XXXX6005" style="points=[[0,0],[0.25,0],[0.5,0],[0.75,0],[1,0],[1,0.25],[1,0.5],[1,0.75],[1,1],[0.75,1],[0.5,1],[0.25,1],[0,1],[0,0.75],[0,0.5],[0,0.25]];outlineConnect=0;gradientColor=none;html=1;whiteSpace=wrap;fontSize=12;fontStyle=0;container=1;pointerEvents=0;collapsible=0;recursiveResize=0;shape=mxgraph.aws4.group;grIcon=mxgraph.aws4.group_account;strokeColor=#CD2264;fillColor=default;verticalAlign=top;align=left;spacingLeft=30;fontColor=#CD2264;dashed=0;" vertex="1" parent="1">
          <mxGeometry x="2040" y="719" width="436" height="281" as="geometry" />
        </mxCell>
        <mxCell id="kcC3YJM4DWDNPQJ4jlRd-50" value="SharedServicesGC*" style="points=[[0,0],[0.25,0],[0.5,0],[0.75,0],[1,0],[1,0.25],[1,0.5],[1,0.75],[1,1],[0.75,1],[0.5,1],[0.25,1],[0,1],[0,0.75],[0,0.5],[0,0.25]];outlineConnect=0;html=1;whiteSpace=wrap;fontSize=12;fontStyle=0;container=1;pointerEvents=0;collapsible=0;recursiveResize=0;shape=mxgraph.aws4.group;grIcon=mxgraph.aws4.group_account;strokeColor=#d79b00;fillColor=#ffe6cc;verticalAlign=top;align=left;spacingLeft=30;dashed=0;opacity=30;" vertex="1" parent="1">
          <mxGeometry x="2037" y="1504" width="287" height="144.5" as="geometry" />
        </mxCell>
        <mxCell id="kcC3YJM4DWDNPQJ4jlRd-51" value="LogArchiveGC" style="points=[[0,0],[0.25,0],[0.5,0],[0.75,0],[1,0],[1,0.25],[1,0.5],[1,0.75],[1,1],[0.75,1],[0.5,1],[0.25,1],[0,1],[0,0.75],[0,0.5],[0,0.25]];outlineConnect=0;html=1;whiteSpace=wrap;fontSize=12;fontStyle=0;container=1;pointerEvents=0;collapsible=0;recursiveResize=0;shape=mxgraph.aws4.group;grIcon=mxgraph.aws4.group_account;strokeColor=#d79b00;fillColor=#ffe6cc;verticalAlign=top;align=left;spacingLeft=30;dashed=0;opacity=30;" vertex="1" parent="1">
          <mxGeometry x="2037" y="1284.5" width="287" height="144.5" as="geometry" />
        </mxCell>
        <mxCell id="kcC3YJM4DWDNPQJ4jlRd-52" value="AuditGC" style="points=[[0,0],[0.25,0],[0.5,0],[0.75,0],[1,0],[1,0.25],[1,0.5],[1,0.75],[1,1],[0.75,1],[0.5,1],[0.25,1],[0,1],[0,0.75],[0,0.5],[0,0.25]];outlineConnect=0;html=1;whiteSpace=wrap;fontSize=12;fontStyle=0;container=1;pointerEvents=0;collapsible=0;recursiveResize=0;shape=mxgraph.aws4.group;grIcon=mxgraph.aws4.group_account;strokeColor=#d79b00;fillColor=#ffe6cc;verticalAlign=top;align=left;spacingLeft=30;dashed=0;opacity=30;" vertex="1" parent="1">
          <mxGeometry x="2037" y="1087" width="436" height="182" as="geometry" />
        </mxCell>
        <mxCell id="kcC3YJM4DWDNPQJ4jlRd-53" value="Security Hub" style="sketch=0;points=[[0,0,0],[0.25,0,0],[0.5,0,0],[0.75,0,0],[1,0,0],[0,1,0],[0.25,1,0],[0.5,1,0],[0.75,1,0],[1,1,0],[0,0.25,0],[0,0.5,0],[0,0.75,0],[1,0.25,0],[1,0.5,0],[1,0.75,0]];outlineConnect=0;fontColor=#232F3E;fillColor=#DD344C;strokeColor=#ffffff;dashed=0;verticalLabelPosition=bottom;verticalAlign=top;align=center;html=1;fontSize=12;fontStyle=0;aspect=fixed;shape=mxgraph.aws4.resourceIcon;resIcon=mxgraph.aws4.security_hub;" vertex="1" parent="kcC3YJM4DWDNPQJ4jlRd-52">
          <mxGeometry x="58.42000000000007" y="31" width="33" height="33" as="geometry" />
        </mxCell>
        <mxCell id="kcC3YJM4DWDNPQJ4jlRd-54" value="Guard Duty" style="sketch=0;points=[[0,0,0],[0.25,0,0],[0.5,0,0],[0.75,0,0],[1,0,0],[0,1,0],[0.25,1,0],[0.5,1,0],[0.75,1,0],[1,1,0],[0,0.25,0],[0,0.5,0],[0,0.75,0],[1,0.25,0],[1,0.5,0],[1,0.75,0]];outlineConnect=0;fontColor=#232F3E;fillColor=#DD344C;strokeColor=#ffffff;dashed=0;verticalLabelPosition=bottom;verticalAlign=top;align=center;html=1;fontSize=12;fontStyle=0;aspect=fixed;shape=mxgraph.aws4.resourceIcon;resIcon=mxgraph.aws4.guardduty;" vertex="1" parent="kcC3YJM4DWDNPQJ4jlRd-52">
          <mxGeometry x="155" y="31" width="33" height="33" as="geometry" />
        </mxCell>
        <mxCell id="kcC3YJM4DWDNPQJ4jlRd-55" value="IAM Access Analyzer" style="sketch=0;outlineConnect=0;fontColor=#232F3E;gradientColor=none;fillColor=#DD344C;strokeColor=none;dashed=0;verticalLabelPosition=bottom;verticalAlign=top;align=center;html=1;fontSize=12;fontStyle=0;aspect=fixed;pointerEvents=1;shape=mxgraph.aws4.access_analyzer;" vertex="1" parent="kcC3YJM4DWDNPQJ4jlRd-52">
          <mxGeometry x="259" y="21.97" width="42.58" height="42.03" as="geometry" />
        </mxCell>
        <mxCell id="kcC3YJM4DWDNPQJ4jlRd-56" value="Config" style="sketch=0;points=[[0,0,0],[0.25,0,0],[0.5,0,0],[0.75,0,0],[1,0,0],[0,1,0],[0.25,1,0],[0.5,1,0],[0.75,1,0],[1,1,0],[0,0.25,0],[0,0.5,0],[0,0.75,0],[1,0.25,0],[1,0.5,0],[1,0.75,0]];points=[[0,0,0],[0.25,0,0],[0.5,0,0],[0.75,0,0],[1,0,0],[0,1,0],[0.25,1,0],[0.5,1,0],[0.75,1,0],[1,1,0],[0,0.25,0],[0,0.5,0],[0,0.75,0],[1,0.25,0],[1,0.5,0],[1,0.75,0]];outlineConnect=0;fontColor=#232F3E;fillColor=#E7157B;strokeColor=#ffffff;dashed=0;verticalLabelPosition=bottom;verticalAlign=top;align=center;html=1;fontSize=12;fontStyle=0;aspect=fixed;shape=mxgraph.aws4.resourceIcon;resIcon=mxgraph.aws4.config;" vertex="1" parent="kcC3YJM4DWDNPQJ4jlRd-52">
          <mxGeometry x="361" y="31" width="34.25" height="34.25" as="geometry" />
        </mxCell>
        <mxCell id="kcC3YJM4DWDNPQJ4jlRd-57" value="NetworkGC" style="points=[[0,0],[0.25,0],[0.5,0],[0.75,0],[1,0],[1,0.25],[1,0.5],[1,0.75],[1,1],[0.75,1],[0.5,1],[0.25,1],[0,1],[0,0.75],[0,0.5],[0,0.25]];outlineConnect=0;html=1;whiteSpace=wrap;fontSize=12;fontStyle=0;container=1;pointerEvents=0;collapsible=0;recursiveResize=0;shape=mxgraph.aws4.group;grIcon=mxgraph.aws4.group_account;strokeColor=#d79b00;fillColor=#ffe6cc;verticalAlign=top;align=left;spacingLeft=30;dashed=0;opacity=30;" vertex="1" parent="1">
          <mxGeometry x="2034" y="1690" width="287" height="144.5" as="geometry" />
        </mxCell>
        <mxCell id="kcC3YJM4DWDNPQJ4jlRd-59" value="" style="endArrow=classic;html=1;rounded=0;dashed=1;strokeWidth=4;fillColor=#f5f5f5;strokeColor=#E6D0DE;" edge="1" parent="1" target="kcC3YJM4DWDNPQJ4jlRd-50">
          <mxGeometry width="50" height="50" relative="1" as="geometry">
            <mxPoint x="1869" y="1578.0300387596903" as="sourcePoint" />
            <mxPoint x="2327" y="1560.5" as="targetPoint" />
          </mxGeometry>
        </mxCell>
        <mxCell id="kcC3YJM4DWDNPQJ4jlRd-60" value="" style="endArrow=classic;html=1;rounded=0;fillColor=#f5f5f5;strokeColor=#E6D0DE;strokeWidth=4;dashed=1;" edge="1" parent="1">
          <mxGeometry width="50" height="50" relative="1" as="geometry">
            <mxPoint x="1875" y="1352.6000387596903" as="sourcePoint" />
            <mxPoint x="2043" y="1352.07" as="targetPoint" />
          </mxGeometry>
        </mxCell>
        <mxCell id="kcC3YJM4DWDNPQJ4jlRd-61" value="" style="endArrow=classic;html=1;rounded=0;dashed=1;strokeColor=#E6D0DE;strokeWidth=4;" edge="1" parent="1">
          <mxGeometry width="50" height="50" relative="1" as="geometry">
            <mxPoint x="1869" y="1163.7800387596903" as="sourcePoint" />
            <mxPoint x="2037" y="1163.25" as="targetPoint" />
          </mxGeometry>
        </mxCell>
        <mxCell id="kcC3YJM4DWDNPQJ4jlRd-62" value="" style="endArrow=classic;html=1;rounded=0;strokeColor=#E6D0DE;strokeWidth=4;dashed=1;" edge="1" parent="1">
          <mxGeometry width="50" height="50" relative="1" as="geometry">
            <mxPoint x="1872" y="1769.2800387596903" as="sourcePoint" />
            <mxPoint x="2040" y="1768.75" as="targetPoint" />
          </mxGeometry>
        </mxCell>
        <mxCell id="kcC3YJM4DWDNPQJ4jlRd-65" value="" style="sketch=0;outlineConnect=0;fontColor=#232F3E;gradientColor=none;fillColor=#E7157B;strokeColor=none;dashed=0;verticalLabelPosition=bottom;verticalAlign=top;align=center;html=1;fontSize=12;fontStyle=0;aspect=fixed;pointerEvents=1;shape=mxgraph.aws4.organizations_organizational_unit2;" vertex="1" parent="1">
          <mxGeometry x="2029" y="1029" width="36" height="36" as="geometry" />
        </mxCell>
        <mxCell id="kcC3YJM4DWDNPQJ4jlRd-66" value="Security OU" style="text;html=1;align=center;verticalAlign=middle;resizable=0;points=[];autosize=1;strokeColor=none;fillColor=none;" vertex="1" parent="1">
          <mxGeometry x="2070" y="1039" width="83" height="26" as="geometry" />
        </mxCell>
        <mxCell id="kcC3YJM4DWDNPQJ4jlRd-67" value="" style="sketch=0;outlineConnect=0;fontColor=#232F3E;gradientColor=none;fillColor=#E7157B;strokeColor=none;dashed=0;verticalLabelPosition=bottom;verticalAlign=top;align=center;html=1;fontSize=12;fontStyle=0;aspect=fixed;pointerEvents=1;shape=mxgraph.aws4.organizations_organizational_unit2;" vertex="1" parent="1">
          <mxGeometry x="2034" y="1458" width="36" height="36" as="geometry" />
        </mxCell>
        <mxCell id="kcC3YJM4DWDNPQJ4jlRd-68" value="Infrastructure OU" style="text;html=1;align=center;verticalAlign=middle;resizable=0;points=[];autosize=1;strokeColor=none;fillColor=none;" vertex="1" parent="1">
          <mxGeometry x="2072" y="1466" width="110" height="26" as="geometry" />
        </mxCell>
        <mxCell id="kcC3YJM4DWDNPQJ4jlRd-69" value="" style="sketch=0;outlineConnect=0;fontColor=#232F3E;gradientColor=none;fillColor=#E7157B;strokeColor=none;dashed=0;verticalLabelPosition=bottom;verticalAlign=top;align=center;html=1;fontSize=12;fontStyle=0;aspect=fixed;pointerEvents=1;shape=mxgraph.aws4.organizations_organizational_unit2;" vertex="1" parent="1">
          <mxGeometry x="2031" y="2040" width="36" height="36" as="geometry" />
        </mxCell>
        <mxCell id="kcC3YJM4DWDNPQJ4jlRd-70" value="Sandbox&amp;nbsp; OU - ou-xxxx-klw6" style="text;html=1;align=center;verticalAlign=middle;resizable=0;points=[];autosize=1;strokeColor=none;fillColor=none;" vertex="1" parent="1">
          <mxGeometry x="2062" y="2046" width="180" height="30" as="geometry" />
        </mxCell>
        <mxCell id="kcC3YJM4DWDNPQJ4jlRd-71" value="Root OU" style="text;html=1;align=center;verticalAlign=middle;resizable=0;points=[];autosize=1;strokeColor=none;fillColor=none;" vertex="1" parent="1">
          <mxGeometry x="2075" y="682" width="65" height="26" as="geometry" />
        </mxCell>
        <mxCell id="kcC3YJM4DWDNPQJ4jlRd-72" value="" style="sketch=0;outlineConnect=0;fontColor=#232F3E;gradientColor=none;fillColor=#E7157B;strokeColor=none;dashed=0;verticalLabelPosition=bottom;verticalAlign=top;align=center;html=1;fontSize=12;fontStyle=0;aspect=fixed;pointerEvents=1;shape=mxgraph.aws4.organizations_organizational_unit2;" vertex="1" parent="1">
          <mxGeometry x="2026" y="672" width="36" height="36" as="geometry" />
        </mxCell>
        <mxCell id="kcC3YJM4DWDNPQJ4jlRd-73" value="" style="group" vertex="1" connectable="0" parent="1">
          <mxGeometry x="2130" y="764" width="130" height="60" as="geometry" />
        </mxCell>
        <mxCell id="kcC3YJM4DWDNPQJ4jlRd-74" value="" style="sketch=0;points=[[0,0,0],[0.25,0,0],[0.5,0,0],[0.75,0,0],[1,0,0],[0,1,0],[0.25,1,0],[0.5,1,0],[0.75,1,0],[1,1,0],[0,0.25,0],[0,0.5,0],[0,0.75,0],[1,0.25,0],[1,0.5,0],[1,0.75,0]];outlineConnect=0;fontColor=#232F3E;fillColor=#DD344C;strokeColor=#ffffff;dashed=0;verticalLabelPosition=bottom;verticalAlign=top;align=center;html=1;fontSize=12;fontStyle=0;aspect=fixed;shape=mxgraph.aws4.resourceIcon;resIcon=mxgraph.aws4.organizations;" vertex="1" parent="kcC3YJM4DWDNPQJ4jlRd-73">
          <mxGeometry x="54" width="33" height="33" as="geometry" />
        </mxCell>
        <mxCell id="kcC3YJM4DWDNPQJ4jlRd-75" value="AWS Organizations" style="text;html=1;align=center;verticalAlign=middle;resizable=0;points=[];autosize=1;strokeColor=none;fillColor=none;" vertex="1" parent="kcC3YJM4DWDNPQJ4jlRd-73">
          <mxGeometry y="30" width="130" height="30" as="geometry" />
        </mxCell>
        <mxCell id="kcC3YJM4DWDNPQJ4jlRd-76" value="" style="group" vertex="1" connectable="0" parent="1">
          <mxGeometry x="2254" y="766" width="130" height="57" as="geometry" />
        </mxCell>
        <mxCell id="kcC3YJM4DWDNPQJ4jlRd-77" value="" style="sketch=0;points=[[0,0,0],[0.25,0,0],[0.5,0,0],[0.75,0,0],[1,0,0],[0,1,0],[0.25,1,0],[0.5,1,0],[0.75,1,0],[1,1,0],[0,0.25,0],[0,0.5,0],[0,0.75,0],[1,0.25,0],[1,0.5,0],[1,0.75,0]];points=[[0,0,0],[0.25,0,0],[0.5,0,0],[0.75,0,0],[1,0,0],[0,1,0],[0.25,1,0],[0.5,1,0],[0.75,1,0],[1,1,0],[0,0.25,0],[0,0.5,0],[0,0.75,0],[1,0.25,0],[1,0.5,0],[1,0.75,0]];outlineConnect=0;fontColor=#232F3E;fillColor=#E7157B;strokeColor=#ffffff;dashed=0;verticalLabelPosition=bottom;verticalAlign=top;align=center;html=1;fontSize=12;fontStyle=0;aspect=fixed;shape=mxgraph.aws4.resourceIcon;resIcon=mxgraph.aws4.control_tower;" vertex="1" parent="kcC3YJM4DWDNPQJ4jlRd-76">
          <mxGeometry x="48.5" width="33" height="33" as="geometry" />
        </mxCell>
        <mxCell id="kcC3YJM4DWDNPQJ4jlRd-78" value="AWS Control Tower" style="text;html=1;align=center;verticalAlign=middle;resizable=0;points=[];autosize=1;strokeColor=none;fillColor=none;" vertex="1" parent="kcC3YJM4DWDNPQJ4jlRd-76">
          <mxGeometry y="27" width="130" height="30" as="geometry" />
        </mxCell>
        <mxCell id="kcC3YJM4DWDNPQJ4jlRd-79" value="" style="rounded=0;whiteSpace=wrap;html=1;dashed=1;" vertex="1" parent="1">
          <mxGeometry x="2124" y="873" width="271" height="74" as="geometry" />
        </mxCell>
        <mxCell id="kcC3YJM4DWDNPQJ4jlRd-80" value="" style="edgeStyle=orthogonalEdgeStyle;rounded=0;orthogonalLoop=1;jettySize=auto;html=1;" edge="1" parent="1" source="kcC3YJM4DWDNPQJ4jlRd-81" target="kcC3YJM4DWDNPQJ4jlRd-82">
          <mxGeometry relative="1" as="geometry" />
        </mxCell>
        <mxCell id="kcC3YJM4DWDNPQJ4jlRd-81" value="&lt;span style=&quot;font-size: 8px;&quot;&gt;S3-Config-Files&lt;br&gt;&lt;/span&gt;" style="sketch=0;outlineConnect=0;fontColor=#232F3E;gradientColor=none;fillColor=#7AA116;strokeColor=none;dashed=0;verticalLabelPosition=bottom;verticalAlign=top;align=center;html=1;fontSize=12;fontStyle=0;aspect=fixed;pointerEvents=1;shape=mxgraph.aws4.bucket_with_objects;" vertex="1" parent="1">
          <mxGeometry x="2192" y="889" width="29.81" height="31" as="geometry" />
        </mxCell>
        <mxCell id="kcC3YJM4DWDNPQJ4jlRd-82" value="&lt;font style=&quot;font-size: 9px;&quot;&gt;AWS CodeBuild&lt;/font&gt;" style="sketch=0;points=[[0,0,0],[0.25,0,0],[0.5,0,0],[0.75,0,0],[1,0,0],[0,1,0],[0.25,1,0],[0.5,1,0],[0.75,1,0],[1,1,0],[0,0.25,0],[0,0.5,0],[0,0.75,0],[1,0.25,0],[1,0.5,0],[1,0.75,0]];outlineConnect=0;fontColor=#232F3E;fillColor=#C925D1;strokeColor=#ffffff;dashed=0;verticalLabelPosition=bottom;verticalAlign=top;align=center;html=1;fontSize=12;fontStyle=0;aspect=fixed;shape=mxgraph.aws4.resourceIcon;resIcon=mxgraph.aws4.codebuild;" vertex="1" parent="1">
          <mxGeometry x="2291" y="888" width="33" height="33" as="geometry" />
        </mxCell>
        <mxCell id="kcC3YJM4DWDNPQJ4jlRd-83" value="" style="sketch=0;points=[[0,0,0],[0.25,0,0],[0.5,0,0],[0.75,0,0],[1,0,0],[0,1,0],[0.25,1,0],[0.5,1,0],[0.75,1,0],[1,1,0],[0,0.25,0],[0,0.5,0],[0,0.75,0],[1,0.25,0],[1,0.5,0],[1,0.75,0]];outlineConnect=0;fontColor=#232F3E;fillColor=#C925D1;strokeColor=#ffffff;dashed=0;verticalLabelPosition=bottom;verticalAlign=top;align=center;html=1;fontSize=12;fontStyle=0;aspect=fixed;shape=mxgraph.aws4.resourceIcon;resIcon=mxgraph.aws4.codepipeline;" vertex="1" parent="1">
          <mxGeometry x="2124" y="873.5" width="15" height="15" as="geometry" />
        </mxCell>
        <mxCell id="kcC3YJM4DWDNPQJ4jlRd-84" value="&lt;font style=&quot;font-size: 8px;&quot;&gt;CodePipeline&lt;/font&gt;" style="text;html=1;align=center;verticalAlign=middle;resizable=0;points=[];autosize=1;strokeColor=none;fillColor=none;" vertex="1" parent="1">
          <mxGeometry x="2134" y="868" width="66" height="26" as="geometry" />
        </mxCell>
        <mxCell id="kcC3YJM4DWDNPQJ4jlRd-85" value="DynamoDB" style="sketch=0;points=[[0,0,0],[0.25,0,0],[0.5,0,0],[0.75,0,0],[1,0,0],[0,1,0],[0.25,1,0],[0.5,1,0],[0.75,1,0],[1,1,0],[0,0.25,0],[0,0.5,0],[0,0.75,0],[1,0.25,0],[1,0.5,0],[1,0.75,0]];outlineConnect=0;fontColor=#232F3E;fillColor=#C925D1;strokeColor=#ffffff;dashed=0;verticalLabelPosition=bottom;verticalAlign=top;align=center;html=1;fontSize=12;fontStyle=0;aspect=fixed;shape=mxgraph.aws4.resourceIcon;resIcon=mxgraph.aws4.dynamodb;" vertex="1" parent="1">
          <mxGeometry x="2067" y="764" width="33" height="33" as="geometry" />
        </mxCell>
        <mxCell id="kcC3YJM4DWDNPQJ4jlRd-86" value="KMS" style="outlineConnect=0;dashed=0;verticalLabelPosition=bottom;verticalAlign=top;align=center;html=1;shape=mxgraph.aws3.kms;fillColor=#759C3E;gradientColor=none;" vertex="1" parent="1">
          <mxGeometry x="2391" y="760" width="33.13" height="33" as="geometry" />
        </mxCell>
        <mxCell id="kcC3YJM4DWDNPQJ4jlRd-87" value="" style="group" vertex="1" connectable="0" parent="1">
          <mxGeometry x="2089" y="1323" width="50.00000000000001" height="56" as="geometry" />
        </mxCell>
        <mxCell id="kcC3YJM4DWDNPQJ4jlRd-88" value="" style="sketch=0;outlineConnect=0;fontColor=#232F3E;gradientColor=none;fillColor=#7AA116;strokeColor=none;dashed=0;verticalLabelPosition=bottom;verticalAlign=top;align=center;html=1;fontSize=12;fontStyle=0;aspect=fixed;pointerEvents=1;shape=mxgraph.aws4.bucket_with_objects;" vertex="1" parent="kcC3YJM4DWDNPQJ4jlRd-87">
          <mxGeometry x="10.57" width="28.85" height="30" as="geometry" />
        </mxCell>
        <mxCell id="kcC3YJM4DWDNPQJ4jlRd-89" value="Logs" style="text;html=1;align=center;verticalAlign=middle;resizable=0;points=[];autosize=1;strokeColor=none;fillColor=none;" vertex="1" parent="kcC3YJM4DWDNPQJ4jlRd-87">
          <mxGeometry y="26" width="50" height="30" as="geometry" />
        </mxCell>
        <mxCell id="kcC3YJM4DWDNPQJ4jlRd-95" value="CloudWatch" style="sketch=0;points=[[0,0,0],[0.25,0,0],[0.5,0,0],[0.75,0,0],[1,0,0],[0,1,0],[0.25,1,0],[0.5,1,0],[0.75,1,0],[1,1,0],[0,0.25,0],[0,0.5,0],[0,0.75,0],[1,0.25,0],[1,0.5,0],[1,0.75,0]];points=[[0,0,0],[0.25,0,0],[0.5,0,0],[0.75,0,0],[1,0,0],[0,1,0],[0.25,1,0],[0.5,1,0],[0.75,1,0],[1,1,0],[0,0.25,0],[0,0.5,0],[0,0.75,0],[1,0.25,0],[1,0.5,0],[1,0.75,0]];outlineConnect=0;fontColor=#232F3E;fillColor=#E7157B;strokeColor=#ffffff;dashed=0;verticalLabelPosition=bottom;verticalAlign=top;align=center;html=1;fontSize=12;fontStyle=0;aspect=fixed;shape=mxgraph.aws4.resourceIcon;resIcon=mxgraph.aws4.cloudwatch_2;" vertex="1" parent="1">
          <mxGeometry x="2097" y="1192.5" width="32.5" height="32.5" as="geometry" />
        </mxCell>
        <mxCell id="kcC3YJM4DWDNPQJ4jlRd-98" value="FirewallGC*" style="points=[[0,0],[0.25,0],[0.5,0],[0.75,0],[1,0],[1,0.25],[1,0.5],[1,0.75],[1,1],[0.75,1],[0.5,1],[0.25,1],[0,1],[0,0.75],[0,0.5],[0,0.25]];outlineConnect=0;html=1;whiteSpace=wrap;fontSize=12;fontStyle=0;container=1;pointerEvents=0;collapsible=0;recursiveResize=0;shape=mxgraph.aws4.group;grIcon=mxgraph.aws4.group_account;strokeColor=#d79b00;fillColor=#ffe6cc;verticalAlign=top;align=left;spacingLeft=30;dashed=0;opacity=30;" vertex="1" parent="1">
          <mxGeometry x="1585" y="1865" width="287" height="144.5" as="geometry" />
        </mxCell>
        <mxCell id="kcC3YJM4DWDNPQJ4jlRd-99" value="FirewallGC*" style="points=[[0,0],[0.25,0],[0.5,0],[0.75,0],[1,0],[1,0.25],[1,0.5],[1,0.75],[1,1],[0.75,1],[0.5,1],[0.25,1],[0,1],[0,0.75],[0,0.5],[0,0.25]];outlineConnect=0;html=1;whiteSpace=wrap;fontSize=12;fontStyle=0;container=1;pointerEvents=0;collapsible=0;recursiveResize=0;shape=mxgraph.aws4.group;grIcon=mxgraph.aws4.group_account;strokeColor=#d79b00;fillColor=#ffe6cc;verticalAlign=top;align=left;spacingLeft=30;dashed=0;opacity=30;" vertex="1" parent="1">
          <mxGeometry x="2037" y="1860" width="287" height="144.5" as="geometry" />
        </mxCell>
        <mxCell id="kcC3YJM4DWDNPQJ4jlRd-100" value="Network Firewall" style="sketch=0;points=[[0,0,0],[0.25,0,0],[0.5,0,0],[0.75,0,0],[1,0,0],[0,1,0],[0.25,1,0],[0.5,1,0],[0.75,1,0],[1,1,0],[0,0.25,0],[0,0.5,0],[0,0.75,0],[1,0.25,0],[1,0.5,0],[1,0.75,0]];outlineConnect=0;fontColor=#232F3E;fillColor=#DD344C;strokeColor=#ffffff;dashed=0;verticalLabelPosition=bottom;verticalAlign=top;align=center;html=1;fontSize=12;fontStyle=0;aspect=fixed;shape=mxgraph.aws4.resourceIcon;resIcon=mxgraph.aws4.network_firewall;" vertex="1" parent="kcC3YJM4DWDNPQJ4jlRd-99">
          <mxGeometry x="50" y="56.25" width="32" height="32" as="geometry" />
        </mxCell>
        <mxCell id="kcC3YJM4DWDNPQJ4jlRd-101" value="" style="endArrow=classic;html=1;rounded=0;strokeColor=#E6D0DE;strokeWidth=4;dashed=1;" edge="1" parent="1">
          <mxGeometry width="50" height="50" relative="1" as="geometry">
            <mxPoint x="1869" y="1928.1000387596903" as="sourcePoint" />
            <mxPoint x="2037" y="1927.57" as="targetPoint" />
          </mxGeometry>
        </mxCell>
        <mxCell id="kcC3YJM4DWDNPQJ4jlRd-102" value="" style="endArrow=classic;html=1;rounded=0;strokeColor=#E6D0DE;strokeWidth=4;dashed=1;" edge="1" parent="1">
          <mxGeometry width="50" height="50" relative="1" as="geometry">
            <mxPoint x="1109" y="2307.5300387596903" as="sourcePoint" />
            <mxPoint x="1277" y="2307" as="targetPoint" />
          </mxGeometry>
        </mxCell>
        <mxCell id="kcC3YJM4DWDNPQJ4jlRd-103" value="Account Association between Commercial &amp;amp; GovCloud" style="text;html=1;align=center;verticalAlign=middle;resizable=0;points=[];autosize=1;strokeColor=none;fillColor=none;" vertex="1" parent="1">
          <mxGeometry x="1291" y="2295" width="309" height="26" as="geometry" />
        </mxCell>
        <mxCell id="kcC3YJM4DWDNPQJ4jlRd-104" value="" style="rounded=0;whiteSpace=wrap;html=1;fillColor=#f5f5f5;fontColor=#333333;strokeColor=default;dashed=1;" vertex="1" parent="1">
          <mxGeometry x="1177.5" y="1029" width="317" height="386" as="geometry" />
        </mxCell>
        <mxCell id="kcC3YJM4DWDNPQJ4jlRd-105" value="David Johnson - XXXX5196" style="points=[[0,0],[0.25,0],[0.5,0],[0.75,0],[1,0],[1,0.25],[1,0.5],[1,0.75],[1,1],[0.75,1],[0.5,1],[0.25,1],[0,1],[0,0.75],[0,0.5],[0,0.25]];outlineConnect=0;gradientColor=none;html=1;whiteSpace=wrap;fontSize=12;fontStyle=0;container=1;pointerEvents=0;collapsible=0;recursiveResize=0;shape=mxgraph.aws4.group;grIcon=mxgraph.aws4.group_account;strokeColor=#CD2264;fillColor=default;verticalAlign=top;align=left;spacingLeft=30;fontColor=#CD2264;dashed=0;" vertex="1" parent="1">
          <mxGeometry x="1191.5" y="1084" width="287" height="48" as="geometry" />
        </mxCell>
        <mxCell id="kcC3YJM4DWDNPQJ4jlRd-106" value="Suspended OU" style="text;html=1;align=center;verticalAlign=middle;resizable=0;points=[];autosize=1;strokeColor=none;fillColor=none;" vertex="1" parent="1">
          <mxGeometry x="1223.5" y="1039" width="110" height="30" as="geometry" />
        </mxCell>
        <mxCell id="kcC3YJM4DWDNPQJ4jlRd-107" value="" style="sketch=0;outlineConnect=0;fontColor=#232F3E;gradientColor=none;fillColor=#E7157B;strokeColor=none;dashed=0;verticalLabelPosition=bottom;verticalAlign=top;align=center;html=1;fontSize=12;fontStyle=0;aspect=fixed;pointerEvents=1;shape=mxgraph.aws4.organizations_organizational_unit2;" vertex="1" parent="1">
          <mxGeometry x="1181.5" y="1034" width="36" height="36" as="geometry" />
        </mxCell>
        <mxCell id="kcC3YJM4DWDNPQJ4jlRd-108" value="mpadgett - XXXX4561" style="points=[[0,0],[0.25,0],[0.5,0],[0.75,0],[1,0],[1,0.25],[1,0.5],[1,0.75],[1,1],[0.75,1],[0.5,1],[0.25,1],[0,1],[0,0.75],[0,0.5],[0,0.25]];outlineConnect=0;gradientColor=none;html=1;whiteSpace=wrap;fontSize=12;fontStyle=0;container=1;pointerEvents=0;collapsible=0;recursiveResize=0;shape=mxgraph.aws4.group;grIcon=mxgraph.aws4.group_account;strokeColor=#CD2264;fillColor=default;verticalAlign=top;align=left;spacingLeft=30;fontColor=#CD2264;dashed=0;" vertex="1" parent="1">
          <mxGeometry x="1192.5" y="1145" width="287" height="48" as="geometry" />
        </mxCell>
        <mxCell id="kcC3YJM4DWDNPQJ4jlRd-109" value="sandbox01 - XXXX5623" style="points=[[0,0],[0.25,0],[0.5,0],[0.75,0],[1,0],[1,0.25],[1,0.5],[1,0.75],[1,1],[0.75,1],[0.5,1],[0.25,1],[0,1],[0,0.75],[0,0.5],[0,0.25]];outlineConnect=0;gradientColor=none;html=1;whiteSpace=wrap;fontSize=12;fontStyle=0;container=1;pointerEvents=0;collapsible=0;recursiveResize=0;shape=mxgraph.aws4.group;grIcon=mxgraph.aws4.group_account;strokeColor=#CD2264;fillColor=default;verticalAlign=top;align=left;spacingLeft=30;fontColor=#CD2264;dashed=0;" vertex="1" parent="1">
          <mxGeometry x="1191.5" y="1207" width="287" height="48" as="geometry" />
        </mxCell>
        <mxCell id="kcC3YJM4DWDNPQJ4jlRd-110" value="" style="sketch=0;outlineConnect=0;fontColor=#232F3E;gradientColor=none;fillColor=#E7157B;strokeColor=none;dashed=0;verticalLabelPosition=bottom;verticalAlign=top;align=center;html=1;fontSize=12;fontStyle=0;aspect=fixed;pointerEvents=1;shape=mxgraph.aws4.organizations_organizational_unit2;" vertex="1" parent="1">
          <mxGeometry x="1181.5" y="1453.5" width="36" height="36" as="geometry" />
        </mxCell>
        <mxCell id="kcC3YJM4DWDNPQJ4jlRd-112" value="appsys - ou-xxxx-xxxxztvz" style="text;html=1;align=center;verticalAlign=middle;resizable=0;points=[];autosize=1;strokeColor=none;fillColor=none;" vertex="1" parent="1">
          <mxGeometry x="1217.5" y="1459.5" width="160" height="30" as="geometry" />
        </mxCell>
        <mxCell id="kcC3YJM4DWDNPQJ4jlRd-113" value="appsys01-prod - XXXX0125" style="points=[[0,0],[0.25,0],[0.5,0],[0.75,0],[1,0],[1,0.25],[1,0.5],[1,0.75],[1,1],[0.75,1],[0.5,1],[0.25,1],[0,1],[0,0.75],[0,0.5],[0,0.25]];outlineConnect=0;gradientColor=none;html=1;whiteSpace=wrap;fontSize=12;fontStyle=0;container=1;pointerEvents=0;collapsible=0;recursiveResize=0;shape=mxgraph.aws4.group;grIcon=mxgraph.aws4.group_account;strokeColor=#CD2264;fillColor=default;verticalAlign=top;align=left;spacingLeft=30;fontColor=#CD2264;dashed=0;" vertex="1" parent="1">
          <mxGeometry x="1191.5" y="1271.13" width="287" height="48" as="geometry" />
        </mxCell>
        <mxCell id="kcC3YJM4DWDNPQJ4jlRd-116" value="Tim Stoever - XXXX6931" style="points=[[0,0],[0.25,0],[0.5,0],[0.75,0],[1,0],[1,0.25],[1,0.5],[1,0.75],[1,1],[0.75,1],[0.5,1],[0.25,1],[0,1],[0,0.75],[0,0.5],[0,0.25]];outlineConnect=0;gradientColor=none;html=1;whiteSpace=wrap;fontSize=12;fontStyle=0;container=1;pointerEvents=0;collapsible=0;recursiveResize=0;shape=mxgraph.aws4.group;grIcon=mxgraph.aws4.group_account;strokeColor=#CD2264;fillColor=default;verticalAlign=top;align=left;spacingLeft=30;fontColor=#CD2264;dashed=0;" vertex="1" parent="1">
          <mxGeometry x="1191.5" y="1335" width="287" height="48" as="geometry" />
        </mxCell>
        <mxCell id="kcC3YJM4DWDNPQJ4jlRd-117" value="" style="rounded=0;whiteSpace=wrap;html=1;fillColor=#f5f5f5;fontColor=#333333;strokeColor=default;dashed=1;dashPattern=8 8;" vertex="1" parent="1">
          <mxGeometry x="1194.5" y="1503.5" width="280" height="71" as="geometry" />
        </mxCell>
        <mxCell id="kcC3YJM4DWDNPQJ4jlRd-118" value="" style="sketch=0;outlineConnect=0;fontColor=#232F3E;gradientColor=none;fillColor=#E7157B;strokeColor=none;dashed=0;verticalLabelPosition=bottom;verticalAlign=top;align=center;html=1;fontSize=12;fontStyle=0;aspect=fixed;pointerEvents=1;shape=mxgraph.aws4.organizations_organizational_unit2;" vertex="1" parent="1">
          <mxGeometry x="1194.5" y="1503.5" width="36" height="36" as="geometry" />
        </mxCell>
        <mxCell id="kcC3YJM4DWDNPQJ4jlRd-119" value="Appsys01 - ou-xxxx-xxxxocfs" style="text;html=1;align=center;verticalAlign=middle;resizable=0;points=[];autosize=1;strokeColor=none;fillColor=none;" vertex="1" parent="1">
          <mxGeometry x="1230.5" y="1509.5" width="180" height="30" as="geometry" />
        </mxCell>
        <mxCell id="kcC3YJM4DWDNPQJ4jlRd-120" value="[ EMPTY ]" style="text;html=1;align=center;verticalAlign=middle;resizable=0;points=[];autosize=1;strokeColor=none;fillColor=none;" vertex="1" parent="1">
          <mxGeometry x="1283.5" y="1539.5" width="80" height="30" as="geometry" />
        </mxCell>
        <mxCell id="kcC3YJM4DWDNPQJ4jlRd-124" value="" style="rounded=0;whiteSpace=wrap;html=1;fillColor=#f5f5f5;fontColor=#333333;strokeColor=default;dashed=1;dashPattern=8 8;" vertex="1" parent="1">
          <mxGeometry x="1194.5" y="1588.5" width="280" height="236" as="geometry" />
        </mxCell>
        <mxCell id="kcC3YJM4DWDNPQJ4jlRd-121" value="" style="sketch=0;outlineConnect=0;fontColor=#232F3E;gradientColor=none;fillColor=#E7157B;strokeColor=none;dashed=0;verticalLabelPosition=bottom;verticalAlign=top;align=center;html=1;fontSize=12;fontStyle=0;aspect=fixed;pointerEvents=1;shape=mxgraph.aws4.organizations_organizational_unit2;" vertex="1" parent="1">
          <mxGeometry x="1194.5" y="1588.5" width="36" height="36" as="geometry" />
        </mxCell>
        <mxCell id="kcC3YJM4DWDNPQJ4jlRd-123" value="Appsys02 - ou-xxxx-xxxximvv" style="text;html=1;align=center;verticalAlign=middle;resizable=0;points=[];autosize=1;strokeColor=none;fillColor=none;" vertex="1" parent="1">
          <mxGeometry x="1236.08" y="1592.5" width="180" height="30" as="geometry" />
        </mxCell>
        <mxCell id="kcC3YJM4DWDNPQJ4jlRd-125" value="appsys02-dev - XXXX2850" style="points=[[0,0],[0.25,0],[0.5,0],[0.75,0],[1,0],[1,0.25],[1,0.5],[1,0.75],[1,1],[0.75,1],[0.5,1],[0.25,1],[0,1],[0,0.75],[0,0.5],[0,0.25]];outlineConnect=0;gradientColor=none;html=1;whiteSpace=wrap;fontSize=12;fontStyle=0;container=1;pointerEvents=0;collapsible=0;recursiveResize=0;shape=mxgraph.aws4.group;grIcon=mxgraph.aws4.group_account;strokeColor=#CD2264;fillColor=default;verticalAlign=top;align=left;spacingLeft=30;fontColor=#CD2264;dashed=0;" vertex="1" parent="1">
          <mxGeometry x="1206.63" y="1642.63" width="257.87" height="48" as="geometry" />
        </mxCell>
        <mxCell id="kcC3YJM4DWDNPQJ4jlRd-126" value="appsys02-prod - XXXX3710" style="points=[[0,0],[0.25,0],[0.5,0],[0.75,0],[1,0],[1,0.25],[1,0.5],[1,0.75],[1,1],[0.75,1],[0.5,1],[0.25,1],[0,1],[0,0.75],[0,0.5],[0,0.25]];outlineConnect=0;gradientColor=none;html=1;whiteSpace=wrap;fontSize=12;fontStyle=0;container=1;pointerEvents=0;collapsible=0;recursiveResize=0;shape=mxgraph.aws4.group;grIcon=mxgraph.aws4.group_account;strokeColor=#CD2264;fillColor=default;verticalAlign=top;align=left;spacingLeft=30;fontColor=#CD2264;dashed=0;" vertex="1" parent="1">
          <mxGeometry x="1206.63" y="1699.5" width="257.87" height="48" as="geometry" />
        </mxCell>
        <mxCell id="kcC3YJM4DWDNPQJ4jlRd-127" value="appsys02-stage - XXXX2415" style="points=[[0,0],[0.25,0],[0.5,0],[0.75,0],[1,0],[1,0.25],[1,0.5],[1,0.75],[1,1],[0.75,1],[0.5,1],[0.25,1],[0,1],[0,0.75],[0,0.5],[0,0.25]];outlineConnect=0;gradientColor=none;html=1;whiteSpace=wrap;fontSize=12;fontStyle=0;container=1;pointerEvents=0;collapsible=0;recursiveResize=0;shape=mxgraph.aws4.group;grIcon=mxgraph.aws4.group_account;strokeColor=#CD2264;fillColor=default;verticalAlign=top;align=left;spacingLeft=30;fontColor=#CD2264;dashed=0;" vertex="1" parent="1">
          <mxGeometry x="1207.0600000000002" y="1759" width="257.87" height="48" as="geometry" />
        </mxCell>
        <mxCell id="kcC3YJM4DWDNPQJ4jlRd-129" value="awscontroller - XXXX8885" style="points=[[0,0],[0.25,0],[0.5,0],[0.75,0],[1,0],[1,0.25],[1,0.5],[1,0.75],[1,1],[0.75,1],[0.5,1],[0.25,1],[0,1],[0,0.75],[0,0.5],[0,0.25]];outlineConnect=0;gradientColor=none;html=1;whiteSpace=wrap;fontSize=12;fontStyle=0;container=1;pointerEvents=0;collapsible=0;recursiveResize=0;shape=mxgraph.aws4.group;grIcon=mxgraph.aws4.group_account;strokeColor=#CD2264;fillColor=default;verticalAlign=top;align=left;spacingLeft=30;fontColor=#CD2264;dashed=0;" vertex="1" parent="1">
          <mxGeometry x="1562" y="880.5" width="310" height="48" as="geometry" />
        </mxCell>
        <mxCell id="kcC3YJM4DWDNPQJ4jlRd-132" value="IM-root-mgt XXXX3751" style="points=[[0,0],[0.25,0],[0.5,0],[0.75,0],[1,0],[1,0.25],[1,0.5],[1,0.75],[1,1],[0.75,1],[0.5,1],[0.25,1],[0,1],[0,0.75],[0,0.5],[0,0.25]];outlineConnect=0;gradientColor=none;html=1;whiteSpace=wrap;fontSize=12;fontStyle=0;container=1;pointerEvents=0;collapsible=0;recursiveResize=0;shape=mxgraph.aws4.group;grIcon=mxgraph.aws4.group_account;strokeColor=#CD2264;fillColor=default;verticalAlign=top;align=left;spacingLeft=30;fontColor=#CD2264;dashed=0;" vertex="1" parent="1">
          <mxGeometry x="1562" y="940" width="310" height="50" as="geometry" />
        </mxCell>
        <mxCell id="kcC3YJM4DWDNPQJ4jlRd-133" value="" style="shape=image;verticalLabelPosition=bottom;labelBackgroundColor=default;verticalAlign=top;aspect=fixed;imageAspect=0;image=data:image/png,iVBORw0KGgoAAAANSUhEUgAAAIoAAAAYCAYAAAAlKWUsAAABXGlDQ1BJQ0MgUHJvZmlsZQAAKJF1kL9LQlEUx7+WYZSDQzQFOUWBRjyLoIJSiQhEHlb0Y+p5NQ1ednk+CZeoPyGIlqYgoqVWGxyipTUICppaaw1cSl7fq5VadOHc74cv5xy+HKDNa0hpugFs5WwrMRfxr6yu+T0v8MDHGkSnIfIyrOsxtuBbW1/lAS6l90G1SxysFy8ud6ci/TPl8eOg+be/5XWl0nlB/WBpQlo24Boh6zu2VLxH7rEYinyoOFPnc8XJOpdrPYuJKPmO7BNZI0V+JgeSTX6mibfMgvjKoNJ707mlBWovqw8xzCIOP3SEoEEiyJ+p/pkZrc1Esc3OIixsIoMsbM6H6UiYSJPnkYPAMAJktU3DmLr17xs2vH3mnHglnDa8+C1wVWD8eMMbmGaUE+BmUhqW8XNZV8Wd3whpde4uAR1HjvO2DHiGgOqj47yXHKd6BrQ/AdeVTwUYYuP7iV7nAAAAVmVYSWZNTQAqAAAACAABh2kABAAAAAEAAAAaAAAAAAADkoYABwAAABIAAABEoAIABAAAAAEAAACKoAMABAAAAAEAAAAYAAAAAEFTQ0lJAAAAU2NyZWVuc2hvdOQD98MAAAHVaVRYdFhNTDpjb20uYWRvYmUueG1wAAAAAAA8eDp4bXBtZXRhIHhtbG5zOng9ImFkb2JlOm5zOm1ldGEvIiB4OnhtcHRrPSJYTVAgQ29yZSA2LjAuMCI+CiAgIDxyZGY6UkRGIHhtbG5zOnJkZj0iaHR0cDovL3d3dy53My5vcmcvMTk5OS8wMi8yMi1yZGYtc3ludGF4LW5zIyI+CiAgICAgIDxyZGY6RGVzY3JpcHRpb24gcmRmOmFib3V0PSIiCiAgICAgICAgICAgIHhtbG5zOmV4aWY9Imh0dHA6Ly9ucy5hZG9iZS5jb20vZXhpZi8xLjAvIj4KICAgICAgICAgPGV4aWY6UGl4ZWxZRGltZW5zaW9uPjI0PC9leGlmOlBpeGVsWURpbWVuc2lvbj4KICAgICAgICAgPGV4aWY6UGl4ZWxYRGltZW5zaW9uPjEzODwvZXhpZjpQaXhlbFhEaW1lbnNpb24+CiAgICAgICAgIDxleGlmOlVzZXJDb21tZW50PlNjcmVlbnNob3Q8L2V4aWY6VXNlckNvbW1lbnQ+CiAgICAgIDwvcmRmOkRlc2NyaXB0aW9uPgogICA8L3JkZjpSREY+CjwveDp4bXBtZXRhPgoov1spAAAH4klEQVRoBe1ae1iOZxj/FdEJHVmJGArNaTmNmLZJxszGZkjMaTLR0By3VWwyMuTQSUl2OYwsGytijCiHhZDS5gob0kqOndt9P/O+vvL1fZ+5unbt6r3/+N7ncD/Pcz+/5/fe9/2816dXQQJFFAS0IKCvpV/pVhAQCNRVxSEj8zIiozYj6VgKFEejikztKuvp6aF3rx4Y/6EHHB3aiM3rSaGHSTJhkrdCkNrFCY27ZcJsCA8WZJFDD3sSxYtoxK3WdTIfmBcsMlE43CiiIFAVAYkXMlEUb1IVIqXOCEi8kImiwKIgoAkBhSia0NHSZ9aoEQL85qNu3UqXRy2j/vvuf2O3QpTnOLe2bR3g0vsVGBj8v4jyb+yWr8e9+w7QCFmHDk74eok/klNOwfnlzjA0NER8wn6Ym5tTvROBZYCdu3YjJDQSQwYPxFSvSahXz0DEuPT0DEyb4Svm371rK86lnUczOzvY2dni3r37ou/69T+wKSoETZvagq9lhYWF+CowCEeTkmmeepjj64M+Lq+guKQEV7OvwcbmBbwzfLTQneE9Ba6ufWFqYoKMjMvwnfs5Hjx4AF4r83IWrdMU1laWOP3rGdy4cVMcrplZI1y8eAnePp8Ku4YOGYT3338XTRpb4+bNWwhcthJpaRfEHOrs7dHNGRMneKJ+/fooLi7BnYICfDDqw0oYVrcfVpo43hNu/V+DpaUFrtHex433Qv/XXTFixDDYN7fDw0ePMMXLByWlpZg+bQp6dHcmLIHjySewavV6sV546Grcvp2L+QsDxLobwteI/S38fDHWrF6OOvr6KKXxjo4OKCsrRfDaMBjRuWmzu9ImqJL0S8KTW0/Vzqp1YyMjAQq72fkL/ZGefgmDB7kjLy8fs3wXCgPfeXuwGJb1+xUErQjGKI8JiNq4Ge3bt0WHl9qLPhMTY7Ru3QrbvovF3Pl+aNiwAcaMHiH6Yr//ET4z5wrQioqKMXniONHOh+jarw82RMXgY+/ZMDI2gqmpiehjsN8iYq5ctQ5TpvqIuUcS2Cy8VmM6+LXrwhEV/S26OneBQ5vWWEokSNh3AE5O7WBv35z0TOA97SMk0yF4eE6CPgHsPXWyPIc6ew8fScKBg78IHf9FgfAPCBRl1Z/q9sN7GTXyPZw89St8Zs1DaFgUjIwMMXfOJygvKwMfNOOXl39HkKRnj65YFRyCdSERRPKe8PKaKJaxoJfUil4ASbhuaWEhqpYW5mjZsgVOnU6FN72kZeXlAmdd7JbmU30+s8/cTgd8/kI6ko6ngL1MaHgUHj58SF7iAgaSN2BhD2JtZUXMHYu7d++KtlYvtkTa+YuinJJyEnt/2ifKRUVF4A2y8EHxofPhskdpRG89i5vb6ygouItt22NFPf1SJuwer8UkKiNw33R3E3385nSntz0icpOop6aexZGjx3D2XAOMH+eBxIOHceLkaeGZ3Ae8gcbWVuj3qovwTOzlZvpMQ506dYhAzcR4/lFnb27uX+QJrgudM2fP4dGjQllfKlS3n+HDhgqPsSxotaQKD3pZ2JPOW+CPv/Ly5PZuXbsIbCW83N5wFV9NZQUNhZycHETHbBEa2eSF2YPrYre6KZ+ZKOom4bZyYqwkiwM+A78FKSdOCS8ktat7Stcvazqwb2MikJNzGxeJaEbkwSSpRzmAAYUxdcIhj4nCX5ZZ+HmBQoo2qXhsL69vSOGDJTPrN3A7z5GXn692CsletZ0qjZr2w+GKbVYVDpssJaUlqs2CtKWlT3Q5FOkToZ5VdLW7unlrJJlt385RHLgfuWOO87oIhwV+o76hELJ12w4UkqeR5AjlKRz6Ar/0wyQKRy69ekpd2Bu/T5Dxjz9vIJLC3AHyGLm5uXK/LoXtO3YJNXNzM+G1vt+9B1euZGsdWnCnQOhwzmbzQpNK+pr2s/enBDQwNcXYMSPBNxAOzRyKWT5b8Cma2tqIEMnh6MzZNHTu1AGdOr4kQqcT6XI4YWGMbEmX5+L8hkOtLqLJ7urG60yUpxj5+M8JFRVPPIm0yM7YOBE+4vfshOeYD+SPNlK/umd8QqIIL4Ff+SF0/SpBDEkvPGIjDh0+io4dnSgvGoCi4mKR2HH/Dz/G49atHPjOmo7EhDhEhAXDfUB/aaj8rCiXDZbbuMD7yqdc4GjScbhTiIvbtQXbt2yE10cTKumpq3AYu3f/Pl2RFyAyYm0lFU37YZs5eR/rOQqxOzZj+dJFwobEA4fERSEmOgzr165AC3t7hIRFkrcuwzdBS/B1YIAImWER0WKtuLg9Ijllm31nTxeJ61PnJFnFmfBj0WS3pFP1qfOtp+pAbXV2r+x+GZBnkebN7HCLwg/nLtUJH+Qdepsne82QVTip47zoUkamTsSUB6oUjI2N0erFFhR6sugmU6zSo7nIyTDfstSJpv3weg0bmOImEV0SvizY0o3u6rV/8h+pnZNuluzsq1KTePLatjZNcDnr90rtulQ02a06nm89NUYU1YWet9y3Ty98MuNj/ElXW3bxfLVdsnQF9if+/LxTK+N1QICJIieznB9U67Z0mKwmVVJTz2HHzjg4O3dGMiXIMZTJ36BvHYrUPALMCxbZo8yZ94X4uFXzSysr/J8Q4O82S+lDq75kNP+bSWKP1KY8azcCzAfmBYvsUbjC3w+Uv0IyErVbmCDV/hWydkOj7F4bAnLo0aao9NduBP4GhK5/Ct9cLr0AAAAASUVORK5CYII=;" vertex="1" parent="1">
          <mxGeometry x="1363.5" y="841" width="138" height="24" as="geometry" />
        </mxCell>
        <mxCell id="kcC3YJM4DWDNPQJ4jlRd-134" value="" style="shape=image;verticalLabelPosition=bottom;labelBackgroundColor=default;verticalAlign=top;aspect=fixed;imageAspect=0;image=data:image/png,iVBORw0KGgoAAAANSUhEUgAAAIoAAAAYCAYAAAAlKWUsAAABXGlDQ1BJQ0MgUHJvZmlsZQAAKJF1kL9LQlEUx7+WYZSDQzQFOUWBRjyLoIJSiQhEHlb0Y+p5NQ1ednk+CZeoPyGIlqYgoqVWGxyipTUICppaaw1cSl7fq5VadOHc74cv5xy+HKDNa0hpugFs5WwrMRfxr6yu+T0v8MDHGkSnIfIyrOsxtuBbW1/lAS6l90G1SxysFy8ud6ci/TPl8eOg+be/5XWl0nlB/WBpQlo24Boh6zu2VLxH7rEYinyoOFPnc8XJOpdrPYuJKPmO7BNZI0V+JgeSTX6mibfMgvjKoNJ707mlBWovqw8xzCIOP3SEoEEiyJ+p/pkZrc1Esc3OIixsIoMsbM6H6UiYSJPnkYPAMAJktU3DmLr17xs2vH3mnHglnDa8+C1wVWD8eMMbmGaUE+BmUhqW8XNZV8Wd3whpde4uAR1HjvO2DHiGgOqj47yXHKd6BrQ/AdeVTwUYYuP7iV7nAAAAVmVYSWZNTQAqAAAACAABh2kABAAAAAEAAAAaAAAAAAADkoYABwAAABIAAABEoAIABAAAAAEAAACKoAMABAAAAAEAAAAYAAAAAEFTQ0lJAAAAU2NyZWVuc2hvdOQD98MAAAHVaVRYdFhNTDpjb20uYWRvYmUueG1wAAAAAAA8eDp4bXBtZXRhIHhtbG5zOng9ImFkb2JlOm5zOm1ldGEvIiB4OnhtcHRrPSJYTVAgQ29yZSA2LjAuMCI+CiAgIDxyZGY6UkRGIHhtbG5zOnJkZj0iaHR0cDovL3d3dy53My5vcmcvMTk5OS8wMi8yMi1yZGYtc3ludGF4LW5zIyI+CiAgICAgIDxyZGY6RGVzY3JpcHRpb24gcmRmOmFib3V0PSIiCiAgICAgICAgICAgIHhtbG5zOmV4aWY9Imh0dHA6Ly9ucy5hZG9iZS5jb20vZXhpZi8xLjAvIj4KICAgICAgICAgPGV4aWY6UGl4ZWxZRGltZW5zaW9uPjI0PC9leGlmOlBpeGVsWURpbWVuc2lvbj4KICAgICAgICAgPGV4aWY6UGl4ZWxYRGltZW5zaW9uPjEzODwvZXhpZjpQaXhlbFhEaW1lbnNpb24+CiAgICAgICAgIDxleGlmOlVzZXJDb21tZW50PlNjcmVlbnNob3Q8L2V4aWY6VXNlckNvbW1lbnQ+CiAgICAgIDwvcmRmOkRlc2NyaXB0aW9uPgogICA8L3JkZjpSREY+CjwveDp4bXBtZXRhPgoov1spAAAH4klEQVRoBe1ae1iOZxj/FdEJHVmJGArNaTmNmLZJxszGZkjMaTLR0By3VWwyMuTQSUl2OYwsGytijCiHhZDS5gob0kqOndt9P/O+vvL1fZ+5unbt6r3/+N7ncD/Pcz+/5/fe9/2816dXQQJFFAS0IKCvpV/pVhAQCNRVxSEj8zIiozYj6VgKFEejikztKuvp6aF3rx4Y/6EHHB3aiM3rSaGHSTJhkrdCkNrFCY27ZcJsCA8WZJFDD3sSxYtoxK3WdTIfmBcsMlE43CiiIFAVAYkXMlEUb1IVIqXOCEi8kImiwKIgoAkBhSia0NHSZ9aoEQL85qNu3UqXRy2j/vvuf2O3QpTnOLe2bR3g0vsVGBj8v4jyb+yWr8e9+w7QCFmHDk74eok/klNOwfnlzjA0NER8wn6Ym5tTvROBZYCdu3YjJDQSQwYPxFSvSahXz0DEuPT0DEyb4Svm371rK86lnUczOzvY2dni3r37ou/69T+wKSoETZvagq9lhYWF+CowCEeTkmmeepjj64M+Lq+guKQEV7OvwcbmBbwzfLTQneE9Ba6ufWFqYoKMjMvwnfs5Hjx4AF4r83IWrdMU1laWOP3rGdy4cVMcrplZI1y8eAnePp8Ku4YOGYT3338XTRpb4+bNWwhcthJpaRfEHOrs7dHNGRMneKJ+/fooLi7BnYICfDDqw0oYVrcfVpo43hNu/V+DpaUFrtHex433Qv/XXTFixDDYN7fDw0ePMMXLByWlpZg+bQp6dHcmLIHjySewavV6sV546Grcvp2L+QsDxLobwteI/S38fDHWrF6OOvr6KKXxjo4OKCsrRfDaMBjRuWmzu9ImqJL0S8KTW0/Vzqp1YyMjAQq72fkL/ZGefgmDB7kjLy8fs3wXCgPfeXuwGJb1+xUErQjGKI8JiNq4Ge3bt0WHl9qLPhMTY7Ru3QrbvovF3Pl+aNiwAcaMHiH6Yr//ET4z5wrQioqKMXniONHOh+jarw82RMXgY+/ZMDI2gqmpiehjsN8iYq5ctQ5TpvqIuUcS2Cy8VmM6+LXrwhEV/S26OneBQ5vWWEokSNh3AE5O7WBv35z0TOA97SMk0yF4eE6CPgHsPXWyPIc6ew8fScKBg78IHf9FgfAPCBRl1Z/q9sN7GTXyPZw89St8Zs1DaFgUjIwMMXfOJygvKwMfNOOXl39HkKRnj65YFRyCdSERRPKe8PKaKJaxoJfUil4ASbhuaWEhqpYW5mjZsgVOnU6FN72kZeXlAmdd7JbmU30+s8/cTgd8/kI6ko6ngL1MaHgUHj58SF7iAgaSN2BhD2JtZUXMHYu7d++KtlYvtkTa+YuinJJyEnt/2ifKRUVF4A2y8EHxofPhskdpRG89i5vb6ygouItt22NFPf1SJuwer8UkKiNw33R3E3385nSntz0icpOop6aexZGjx3D2XAOMH+eBxIOHceLkaeGZ3Ae8gcbWVuj3qovwTOzlZvpMQ506dYhAzcR4/lFnb27uX+QJrgudM2fP4dGjQllfKlS3n+HDhgqPsSxotaQKD3pZ2JPOW+CPv/Ly5PZuXbsIbCW83N5wFV9NZQUNhZycHETHbBEa2eSF2YPrYre6KZ+ZKOom4bZyYqwkiwM+A78FKSdOCS8ktat7Stcvazqwb2MikJNzGxeJaEbkwSSpRzmAAYUxdcIhj4nCX5ZZ+HmBQoo2qXhsL69vSOGDJTPrN3A7z5GXn692CsletZ0qjZr2w+GKbVYVDpssJaUlqs2CtKWlT3Q5FOkToZ5VdLW7unlrJJlt385RHLgfuWOO87oIhwV+o76hELJ12w4UkqeR5AjlKRz6Ar/0wyQKRy69ekpd2Bu/T5Dxjz9vIJLC3AHyGLm5uXK/LoXtO3YJNXNzM+G1vt+9B1euZGsdWnCnQOhwzmbzQpNK+pr2s/enBDQwNcXYMSPBNxAOzRyKWT5b8Cma2tqIEMnh6MzZNHTu1AGdOr4kQqcT6XI4YWGMbEmX5+L8hkOtLqLJ7urG60yUpxj5+M8JFRVPPIm0yM7YOBE+4vfshOeYD+SPNlK/umd8QqIIL4Ff+SF0/SpBDEkvPGIjDh0+io4dnSgvGoCi4mKR2HH/Dz/G49atHPjOmo7EhDhEhAXDfUB/aaj8rCiXDZbbuMD7yqdc4GjScbhTiIvbtQXbt2yE10cTKumpq3AYu3f/Pl2RFyAyYm0lFU37YZs5eR/rOQqxOzZj+dJFwobEA4fERSEmOgzr165AC3t7hIRFkrcuwzdBS/B1YIAImWER0WKtuLg9Ijllm31nTxeJ61PnJFnFmfBj0WS3pFP1qfOtp+pAbXV2r+x+GZBnkebN7HCLwg/nLtUJH+Qdepsne82QVTip47zoUkamTsSUB6oUjI2N0erFFhR6sugmU6zSo7nIyTDfstSJpv3weg0bmOImEV0SvizY0o3u6rV/8h+pnZNuluzsq1KTePLatjZNcDnr90rtulQ02a06nm89NUYU1YWet9y3Ty98MuNj/ElXW3bxfLVdsnQF9if+/LxTK+N1QICJIieznB9U67Z0mKwmVVJTz2HHzjg4O3dGMiXIMZTJ36BvHYrUPALMCxbZo8yZ94X4uFXzSysr/J8Q4O82S+lDq75kNP+bSWKP1KY8azcCzAfmBYvsUbjC3w+Uv0IyErVbmCDV/hWydkOj7F4bAnLo0aao9NduBP4GhK5/Ct9cLr0AAAAASUVORK5CYII=;" vertex="1" parent="1">
          <mxGeometry x="2337" y="975" width="138" height="24" as="geometry" />
        </mxCell>
        <mxCell id="kcC3YJM4DWDNPQJ4jlRd-135" value="Sandbox01 -XXXX1225" style="points=[[0,0],[0.25,0],[0.5,0],[0.75,0],[1,0],[1,0.25],[1,0.5],[1,0.75],[1,1],[0.75,1],[0.5,1],[0.25,1],[0,1],[0,0.75],[0,0.5],[0,0.25]];outlineConnect=0;gradientColor=none;html=1;whiteSpace=wrap;fontSize=12;fontStyle=0;container=1;pointerEvents=0;collapsible=0;recursiveResize=0;shape=mxgraph.aws4.group;grIcon=mxgraph.aws4.group_account;strokeColor=#CD2264;fillColor=default;verticalAlign=top;align=left;spacingLeft=30;fontColor=#CD2264;dashed=0;" vertex="1" parent="1">
          <mxGeometry x="1195" y="886" width="310" height="48" as="geometry" />
        </mxCell>
        <mxCell id="kcC3YJM4DWDNPQJ4jlRd-136" value="Sandbox02 -XXXX7047" style="points=[[0,0],[0.25,0],[0.5,0],[0.75,0],[1,0],[1,0.25],[1,0.5],[1,0.75],[1,1],[0.75,1],[0.5,1],[0.25,1],[0,1],[0,0.75],[0,0.5],[0,0.25]];outlineConnect=0;gradientColor=none;html=1;whiteSpace=wrap;fontSize=12;fontStyle=0;container=1;pointerEvents=0;collapsible=0;recursiveResize=0;shape=mxgraph.aws4.group;grIcon=mxgraph.aws4.group_account;strokeColor=#CD2264;fillColor=default;verticalAlign=top;align=left;spacingLeft=30;fontColor=#CD2264;dashed=0;" vertex="1" parent="1">
          <mxGeometry x="1195" y="947" width="310" height="48" as="geometry" />
        </mxCell>
        <mxCell id="kcC3YJM4DWDNPQJ4jlRd-138" value="" style="rounded=0;whiteSpace=wrap;html=1;fillColor=#f5f5f5;fontColor=#333333;strokeColor=default;dashed=1;" vertex="1" parent="1">
          <mxGeometry x="2380" y="1460" width="317" height="520" as="geometry" />
        </mxCell>
        <mxCell id="kcC3YJM4DWDNPQJ4jlRd-139" value="appsys - ou-xxxx-xxxx73is" style="text;html=1;align=center;verticalAlign=middle;resizable=0;points=[];autosize=1;strokeColor=none;fillColor=none;" vertex="1" parent="1">
          <mxGeometry x="2430" y="1467" width="160" height="30" as="geometry" />
        </mxCell>
        <mxCell id="kcC3YJM4DWDNPQJ4jlRd-140" value="" style="sketch=0;outlineConnect=0;fontColor=#232F3E;gradientColor=none;fillColor=#E7157B;strokeColor=none;dashed=0;verticalLabelPosition=bottom;verticalAlign=top;align=center;html=1;fontSize=12;fontStyle=0;aspect=fixed;pointerEvents=1;shape=mxgraph.aws4.organizations_organizational_unit2;" vertex="1" parent="1">
          <mxGeometry x="2384" y="1461" width="36" height="36" as="geometry" />
        </mxCell>
        <mxCell id="kcC3YJM4DWDNPQJ4jlRd-143" value="" style="rounded=0;whiteSpace=wrap;html=1;fillColor=#f5f5f5;fontColor=#333333;strokeColor=default;dashed=1;dashPattern=8 8;" vertex="1" parent="1">
          <mxGeometry x="2395" y="1518" width="280" height="182.5" as="geometry" />
        </mxCell>
        <mxCell id="kcC3YJM4DWDNPQJ4jlRd-141" value="Appsys01 - ou-xxxx-xxxx0e0b" style="text;html=1;align=center;verticalAlign=middle;resizable=0;points=[];autosize=1;strokeColor=none;fillColor=none;" vertex="1" parent="1">
          <mxGeometry x="2431" y="1524" width="180" height="30" as="geometry" />
        </mxCell>
        <mxCell id="kcC3YJM4DWDNPQJ4jlRd-142" value="" style="sketch=0;outlineConnect=0;fontColor=#232F3E;gradientColor=none;fillColor=#E7157B;strokeColor=none;dashed=0;verticalLabelPosition=bottom;verticalAlign=top;align=center;html=1;fontSize=12;fontStyle=0;aspect=fixed;pointerEvents=1;shape=mxgraph.aws4.organizations_organizational_unit2;" vertex="1" parent="1">
          <mxGeometry x="2395" y="1518" width="36" height="36" as="geometry" />
        </mxCell>
        <mxCell id="kcC3YJM4DWDNPQJ4jlRd-144" value="Ryan Necessary - IM XXXXX7045" style="points=[[0,0],[0.25,0],[0.5,0],[0.75,0],[1,0],[1,0.25],[1,0.5],[1,0.75],[1,1],[0.75,1],[0.5,1],[0.25,1],[0,1],[0,0.75],[0,0.5],[0,0.25]];outlineConnect=0;gradientColor=none;html=1;whiteSpace=wrap;fontSize=12;fontStyle=0;container=1;pointerEvents=0;collapsible=0;recursiveResize=0;shape=mxgraph.aws4.group;grIcon=mxgraph.aws4.group_account;strokeColor=#CD2264;fillColor=default;verticalAlign=top;align=left;spacingLeft=30;fontColor=#CD2264;dashed=0;" vertex="1" parent="1">
          <mxGeometry x="2410" y="1569.5" width="240" height="70.5" as="geometry" />
        </mxCell>
        <mxCell id="kcC3YJM4DWDNPQJ4jlRd-153" value="" style="rounded=0;whiteSpace=wrap;html=1;fillColor=#f5f5f5;fontColor=#333333;strokeColor=default;dashed=1;dashPattern=8 8;" vertex="1" parent="1">
          <mxGeometry x="2395" y="1720" width="280" height="236" as="geometry" />
        </mxCell>
        <mxCell id="kcC3YJM4DWDNPQJ4jlRd-149" value="Appsys02 - ou-xxxx-xxxxbtm0" style="text;html=1;align=center;verticalAlign=middle;resizable=0;points=[];autosize=1;strokeColor=none;fillColor=none;" vertex="1" parent="1">
          <mxGeometry x="2436.58" y="1724" width="180" height="30" as="geometry" />
        </mxCell>
        <mxCell id="kcC3YJM4DWDNPQJ4jlRd-150" value="" style="sketch=0;outlineConnect=0;fontColor=#232F3E;gradientColor=none;fillColor=#E7157B;strokeColor=none;dashed=0;verticalLabelPosition=bottom;verticalAlign=top;align=center;html=1;fontSize=12;fontStyle=0;aspect=fixed;pointerEvents=1;shape=mxgraph.aws4.organizations_organizational_unit2;" vertex="1" parent="1">
          <mxGeometry x="2395" y="1720" width="36" height="36" as="geometry" />
        </mxCell>
        <mxCell id="kcC3YJM4DWDNPQJ4jlRd-151" value="appsys02-dev - XXXX3383" style="points=[[0,0],[0.25,0],[0.5,0],[0.75,0],[1,0],[1,0.25],[1,0.5],[1,0.75],[1,1],[0.75,1],[0.5,1],[0.25,1],[0,1],[0,0.75],[0,0.5],[0,0.25]];outlineConnect=0;gradientColor=none;html=1;whiteSpace=wrap;fontSize=12;fontStyle=0;container=1;pointerEvents=0;collapsible=0;recursiveResize=0;shape=mxgraph.aws4.group;grIcon=mxgraph.aws4.group_account;strokeColor=#CD2264;fillColor=default;verticalAlign=top;align=left;spacingLeft=30;fontColor=#CD2264;dashed=0;" vertex="1" parent="1">
          <mxGeometry x="2407.13" y="1774.13" width="257.87" height="48" as="geometry" />
        </mxCell>
        <mxCell id="kcC3YJM4DWDNPQJ4jlRd-152" value="appsys02-prod - XXXX2760" style="points=[[0,0],[0.25,0],[0.5,0],[0.75,0],[1,0],[1,0.25],[1,0.5],[1,0.75],[1,1],[0.75,1],[0.5,1],[0.25,1],[0,1],[0,0.75],[0,0.5],[0,0.25]];outlineConnect=0;gradientColor=none;html=1;whiteSpace=wrap;fontSize=12;fontStyle=0;container=1;pointerEvents=0;collapsible=0;recursiveResize=0;shape=mxgraph.aws4.group;grIcon=mxgraph.aws4.group_account;strokeColor=#CD2264;fillColor=default;verticalAlign=top;align=left;spacingLeft=30;fontColor=#CD2264;dashed=0;" vertex="1" parent="1">
          <mxGeometry x="2407.13" y="1831" width="257.87" height="48" as="geometry" />
        </mxCell>
        <mxCell id="kcC3YJM4DWDNPQJ4jlRd-154" value="appsys02-stage - XXXX4803" style="points=[[0,0],[0.25,0],[0.5,0],[0.75,0],[1,0],[1,0.25],[1,0.5],[1,0.75],[1,1],[0.75,1],[0.5,1],[0.25,1],[0,1],[0,0.75],[0,0.5],[0,0.25]];outlineConnect=0;gradientColor=none;html=1;whiteSpace=wrap;fontSize=12;fontStyle=0;container=1;pointerEvents=0;collapsible=0;recursiveResize=0;shape=mxgraph.aws4.group;grIcon=mxgraph.aws4.group_account;strokeColor=#CD2264;fillColor=default;verticalAlign=top;align=left;spacingLeft=30;fontColor=#CD2264;dashed=0;" vertex="1" parent="1">
          <mxGeometry x="2407.5600000000004" y="1890.5" width="257.87" height="48" as="geometry" />
        </mxCell>
        <mxCell id="kcC3YJM4DWDNPQJ4jlRd-155" value="" style="endArrow=classic;html=1;rounded=0;dashed=1;strokeColor=#E6D0DE;strokeWidth=4;" edge="1" parent="1">
          <mxGeometry width="50" height="50" relative="1" as="geometry">
            <mxPoint x="1872" y="964.5300387596903" as="sourcePoint" />
            <mxPoint x="2020" y="964.5" as="targetPoint" />
          </mxGeometry>
        </mxCell>
        <mxCell id="kcC3YJM4DWDNPQJ4jlRd-162" value="Sandbox01 -XXXX3192" style="points=[[0,0],[0.25,0],[0.5,0],[0.75,0],[1,0],[1,0.25],[1,0.5],[1,0.75],[1,1],[0.75,1],[0.5,1],[0.25,1],[0,1],[0,0.75],[0,0.5],[0,0.25]];outlineConnect=0;gradientColor=none;html=1;whiteSpace=wrap;fontSize=12;fontStyle=0;container=1;pointerEvents=0;collapsible=0;recursiveResize=0;shape=mxgraph.aws4.group;grIcon=mxgraph.aws4.group_account;strokeColor=#CD2264;fillColor=default;verticalAlign=top;align=left;spacingLeft=30;fontColor=#CD2264;dashed=0;" vertex="1" parent="1">
          <mxGeometry x="2040" y="2110" width="290" height="48" as="geometry" />
        </mxCell>
        <mxCell id="kcC3YJM4DWDNPQJ4jlRd-163" value="Sandbox02 -XXXX9864" style="points=[[0,0],[0.25,0],[0.5,0],[0.75,0],[1,0],[1,0.25],[1,0.5],[1,0.75],[1,1],[0.75,1],[0.5,1],[0.25,1],[0,1],[0,0.75],[0,0.5],[0,0.25]];outlineConnect=0;gradientColor=none;html=1;whiteSpace=wrap;fontSize=12;fontStyle=0;container=1;pointerEvents=0;collapsible=0;recursiveResize=0;shape=mxgraph.aws4.group;grIcon=mxgraph.aws4.group_account;strokeColor=#CD2264;fillColor=default;verticalAlign=top;align=left;spacingLeft=30;fontColor=#CD2264;dashed=0;" vertex="1" parent="1">
          <mxGeometry x="2040" y="2171" width="290" height="48" as="geometry" />
        </mxCell>
        <mxCell id="kcC3YJM4DWDNPQJ4jlRd-157" value="" style="rounded=0;whiteSpace=wrap;html=1;fillColor=none;fontColor=#333333;strokeColor=default;dashed=1;dashPattern=8 8;" vertex="1" parent="1">
          <mxGeometry x="1558" y="753.5" width="280" height="96.5" as="geometry" />
        </mxCell>
        <mxCell id="kcC3YJM4DWDNPQJ4jlRd-161" style="edgeStyle=orthogonalEdgeStyle;rounded=0;orthogonalLoop=1;jettySize=auto;html=1;" edge="1" parent="1" source="kcC3YJM4DWDNPQJ4jlRd-156" target="kcC3YJM4DWDNPQJ4jlRd-160">
          <mxGeometry relative="1" as="geometry" />
        </mxCell>
        <mxCell id="kcC3YJM4DWDNPQJ4jlRd-156" value="AWS Service&lt;br&gt;Catalog" style="sketch=0;points=[[0,0,0],[0.25,0,0],[0.5,0,0],[0.75,0,0],[1,0,0],[0,1,0],[0.25,1,0],[0.5,1,0],[0.75,1,0],[1,1,0],[0,0.25,0],[0,0.5,0],[0,0.75,0],[1,0.25,0],[1,0.5,0],[1,0.75,0]];points=[[0,0,0],[0.25,0,0],[0.5,0,0],[0.75,0,0],[1,0,0],[0,1,0],[0.25,1,0],[0.5,1,0],[0.75,1,0],[1,1,0],[0,0.25,0],[0,0.5,0],[0,0.75,0],[1,0.25,0],[1,0.5,0],[1,0.75,0]];outlineConnect=0;fontColor=#232F3E;fillColor=#E7157B;strokeColor=#ffffff;dashed=0;verticalLabelPosition=bottom;verticalAlign=top;align=center;html=1;fontSize=12;fontStyle=0;aspect=fixed;shape=mxgraph.aws4.resourceIcon;resIcon=mxgraph.aws4.service_catalog;" vertex="1" parent="1">
          <mxGeometry x="1611" y="770.5" width="39" height="39" as="geometry" />
        </mxCell>
        <mxCell id="kcC3YJM4DWDNPQJ4jlRd-159" value="Account Vending" style="text;html=1;align=center;verticalAlign=middle;resizable=0;points=[];autosize=1;strokeColor=none;fillColor=none;" vertex="1" parent="1">
          <mxGeometry x="1550" y="731" width="110" height="30" as="geometry" />
        </mxCell>
        <mxCell id="kcC3YJM4DWDNPQJ4jlRd-160" value="" style="sketch=0;outlineConnect=0;fontColor=#232F3E;gradientColor=none;fillColor=#E7157B;strokeColor=none;dashed=0;verticalLabelPosition=bottom;verticalAlign=top;align=center;html=1;fontSize=12;fontStyle=0;aspect=fixed;pointerEvents=1;shape=mxgraph.aws4.organizations_account2;" vertex="1" parent="1">
          <mxGeometry x="1730" y="771.5" width="37.5" height="37.5" as="geometry" />
        </mxCell>
      </root>
    </mxGraphModel>
  </diagram>
</mxfile>
